<?xml version="1.0" encoding="UTF-8" standalone="no"?>
<!-- Created with Inkscape (http://www.inkscape.org/) -->

<svg
   xmlns:dc="http://purl.org/dc/elements/1.1/"
   xmlns:cc="http://creativecommons.org/ns#"
   xmlns:rdf="http://www.w3.org/1999/02/22-rdf-syntax-ns#"
   xmlns:svg="http://www.w3.org/2000/svg"
   xmlns="http://www.w3.org/2000/svg"
   xmlns:sodipodi="http://sodipodi.sourceforge.net/DTD/sodipodi-0.dtd"
   xmlns:inkscape="http://www.inkscape.org/namespaces/inkscape"
   width="135.46796mm"
   height="133.26186mm"
   viewBox="0 0 135.46796 133.26186"
   version="1.1"
   id="svg8"
   inkscape:version="0.92.4 (5da689c313, 2019-01-14)"
   sodipodi:docname="iconDeaths.svg">
  <defs
     id="defs2" />
  <sodipodi:namedview
     id="base"
     pagecolor="#ffffff"
     bordercolor="#666666"
     borderopacity="1.0"
     inkscape:pageopacity="0.0"
     inkscape:pageshadow="2"
     inkscape:zoom="0.35"
     inkscape:cx="-295.42613"
     inkscape:cy="320.40487"
     inkscape:document-units="mm"
     inkscape:current-layer="layer1"
     showgrid="false"
     inkscape:window-width="1366"
     inkscape:window-height="705"
     inkscape:window-x="-8"
     inkscape:window-y="32"
     inkscape:window-maximized="1" />
  <metadata
     id="metadata5">
    <rdf:RDF>
      <cc:Work
         rdf:about="">
        <dc:format>image/svg+xml</dc:format>
        <dc:type
           rdf:resource="http://purl.org/dc/dcmitype/StillImage" />
        <dc:title></dc:title>
      </cc:Work>
    </rdf:RDF>
  </metadata>
  <g
     inkscape:label="Layer 1"
     inkscape:groupmode="layer"
     id="layer1"
     transform="translate(-51.706496,-100.34527)">
    <g
       id="g833"
       transform="matrix(0.26511218,0,0,0.26193551,53.219597,101.54813)"
       style="fill:#00d455">
      <path
         id="path815"
         d="m 499.421,228.968 c -1.043,-13.54 -7.164,-25.639 -17.233,-34.069 -9.426,-7.891 -21.271,-11.569 -33.356,-10.357 -16.482,1.653 -30.999,12.435 -38.155,27.957 l -14.979,1.323 -14.784,-4.144 c -1.149,-0.322 -2.076,-1.232 -2.48,-2.434 -4.296,-12.781 -10.428,-24.85 -18.241,-35.905 l 5.232,-14.067 16.513,-17.86 c 9.392,-0.315 18.126,-4.455 24.389,-11.674 11.333,-13.063 10.862,-33.082 -1.074,-45.575 -6.551,-6.856 -15.375,-10.614 -24.813,-10.513 -9.319,0.076 -18.29,4.042 -24.614,10.883 -6.195,6.7 -9.367,15.439 -8.973,24.435 L 330.338,124.831 316.5,131.25 C 295.86,119.185 272.422,112.66 248.448,112.312 L 239.4,97.882 236.209,82.025 C 248.922,71.63 254.862,55.484 251.465,39.578 246.367,15.709 221.788,0.161 196.679,4.924 184.037,7.32 173.281,14.35 166.392,24.716 c -6.453,9.711 -8.682,21.264 -6.275,32.53 3.208,15.021 14.097,27.138 28.911,32.544 l 3.525,17.518 -2.804,17.075 c -12.772,5.713 -24.551,13.287 -35.104,22.57 l -10.372,-1.848 -11.72,-8.842 c -1.675,-8.901 -6.813,-16.737 -14.447,-21.859 -14.247,-9.56 -33.405,-6.945 -44.563,6.082 -6.168,7.202 -9.004,16.343 -7.985,25.737 1.005,9.264 5.847,17.795 13.284,23.406 7.69,5.801 17.47,8.014 26.831,6.215 l 9.821,7.409 4.405,9.014 c 0.195,0.399 0.2,0.859 0.015,1.261 -8.401,18.267 -12.66,37.769 -12.66,57.965 0,3.738 0.155,7.538 0.46,11.294 0.047,0.58 -0.182,1.11 -0.614,1.417 l -16.585,11.817 -18.93,5.955 c -11.623,-8.993 -26.992,-11.709 -41.138,-7.034 -0.283,0.094 -0.562,0.195 -0.84,0.298 l -0.234,0.086 c -3.897,1.404 -5.918,5.701 -4.515,9.598 1.403,3.896 5.698,5.919 9.598,4.515 l 0.351,-0.128 c 0.118,-0.043 0.236,-0.088 0.353,-0.127 10.331,-3.416 21.651,-0.875 29.544,6.63 1.415,1.345 3.272,2.064 5.168,2.064 0.752,0 1.511,-0.113 2.25,-0.346 l 24.028,-7.559 c 0.751,-0.236 1.46,-0.589 2.102,-1.046 l 17.552,-12.506 c 4.706,-3.352 7.335,-9.043 6.861,-14.852 -0.272,-3.353 -0.411,-6.743 -0.411,-10.077 0,-18.017 3.798,-35.411 11.289,-51.698 2.073,-4.509 2.013,-9.653 -0.166,-14.113 l -5.194,-10.628 c -0.518,-1.061 -1.279,-1.983 -2.221,-2.694 l -14.119,-10.652 c -1.946,-1.468 -4.485,-1.899 -6.804,-1.155 -5.856,1.876 -12.271,0.792 -17.162,-2.898 -4.207,-3.173 -6.836,-7.808 -7.405,-13.05 -0.568,-5.236 1.018,-10.336 4.465,-14.361 6.11,-7.133 17.009,-8.62 24.813,-3.384 4.811,3.229 7.847,8.383 8.33,14.143 0.178,2.126 1.253,4.076 2.957,5.361 l 15.638,11.798 c 0.942,0.711 2.039,1.189 3.201,1.396 l 15.756,2.808 c 2.319,0.414 4.693,-0.286 6.417,-1.886 10.977,-10.186 23.523,-18.224 37.292,-23.891 2.405,-0.99 4.125,-3.154 4.546,-5.72 l 3.692,-22.48 c 0.147,-0.894 0.13,-1.807 -0.048,-2.695 L 202.86,82.478 c -0.567,-2.819 -2.696,-5.066 -5.481,-5.783 -11.598,-2.988 -20.254,-11.641 -22.59,-22.58 -1.556,-7.284 -0.1,-14.776 4.1,-21.096 4.635,-6.975 11.947,-11.719 20.588,-13.357 17.173,-3.252 33.914,7.085 37.323,23.049 2.441,11.432 -2.645,23.127 -12.958,29.795 -2.587,1.673 -3.888,4.758 -3.28,7.778 l 4.407,21.9 c 0.179,0.888 0.517,1.736 0.998,2.504 l 10.833,17.281 c 2.092,3.337 5.691,5.329 9.647,5.329 h 0.004 c 22.574,0 44.696,6.152 63.977,17.792 3.232,1.951 7.199,2.172 10.611,0.591 l 16.957,-7.866 c 0.888,-0.412 1.687,-0.994 2.351,-1.712 l 19.8,-21.416 c 1.554,-1.68 2.255,-3.977 1.905,-6.239 -0.889,-5.744 0.857,-11.478 4.79,-15.731 3.577,-3.869 8.451,-6.023 13.723,-6.067 5.252,-0.001 10.184,2.043 13.845,5.876 6.645,6.955 6.904,18.104 0.589,25.382 -3.96,4.564 -9.69,6.92 -15.722,6.467 -2.281,-0.173 -4.518,0.708 -6.07,2.388 l -19.8,21.416 c -0.665,0.718 -1.182,1.56 -1.523,2.477 l -6.437,17.308 c -1.323,3.557 -0.772,7.521 1.472,10.604 7.461,10.25 13.281,21.506 17.298,33.457 1.987,5.913 6.716,10.436 12.651,12.099 l 16.103,4.513 c 0.872,0.245 1.781,0.328 2.684,0.249 l 20.913,-1.847 c 2.942,-0.26 5.457,-2.221 6.426,-5.011 4.33,-12.473 15.061,-21.328 27.338,-22.559 8.029,-0.806 15.927,1.657 22.231,6.934 6.947,5.816 11.176,14.24 11.906,23.719 0.482,6.264 -0.65,12.554 -3.274,18.191 -1.748,3.755 -0.122,8.216 3.634,9.965 3.757,1.748 8.217,0.122 9.965,-3.634 3.705,-7.97 5.306,-16.848 4.627,-25.676 z"
         inkscape:connector-curvature="0"
         style="fill:#00d455" />
      <path
         id="path817"
         d="m 461.674,266.105 c -2.105,0.693 -4.277,1.155 -6.455,1.374 -12.979,1.299 -25.11,-5.888 -30.917,-18.315 -1.335,-2.856 -4.316,-4.575 -7.455,-4.295 l -19.632,1.734 c -0.903,0.08 -1.783,0.322 -2.599,0.716 l -14.819,7.149 c -5.614,2.708 -9.488,8.058 -10.361,14.31 -1.3,9.303 -3.669,18.459 -7.04,27.212 -2.012,5.225 -1.614,10.998 1.093,15.837 l 5.278,9.438 c 0.576,1.03 1.387,1.91 2.368,2.567 l 14.688,9.854 c 2.023,1.358 4.582,1.647 6.858,0.777 5.741,-2.197 12.207,-1.471 17.296,1.943 4.375,2.935 7.258,7.417 8.116,12.619 0.857,5.196 -0.443,10.377 -3.663,14.587 -5.706,7.462 -16.504,9.55 -24.587,4.753 -4.982,-2.957 -8.3,-7.936 -9.101,-13.66 -0.296,-2.113 -1.478,-4 -3.25,-5.188 l -16.268,-10.914 c -0.98,-0.658 -2.102,-1.075 -3.273,-1.217 l -10.239,-1.245 c -5.727,-0.698 -11.437,1.213 -15.662,5.24 -8.2,7.813 -17.408,14.468 -27.367,19.779 -5.792,3.088 -9.648,9.114 -10.062,15.724 l -1.299,20.744 c -0.048,0.773 0.023,1.55 0.213,2.301 l 6.437,25.546 c 0.657,2.609 2.662,4.666 5.252,5.39 8.734,2.443 15.534,9.411 17.745,18.184 1.683,6.68 0.619,13.59 -2.998,19.456 -3.614,5.863 -9.316,9.918 -16.055,11.419 -12.563,2.8 -25.527,-4.579 -29.507,-16.796 -3.006,-9.229 -0.578,-19.178 6.335,-25.966 1.901,-1.866 2.669,-4.601 2.018,-7.184 l -6.477,-25.702 c -0.189,-0.751 -0.494,-1.469 -0.903,-2.127 l -9.985,-16.061 c -4.047,-6.511 -11.097,-10.396 -18.937,-10.396 -0.005,0 -0.01,0 -0.016,0 -8.11,0 -16.229,-0.793 -24.133,-2.357 -7.534,-1.492 -15.153,0.914 -20.381,6.431 l -13.202,13.932 c -0.533,0.563 -0.976,1.204 -1.313,1.902 l -14.778,30.661 c -1.001,2.077 -0.991,4.5 0.027,6.568 2.589,5.26 2.619,11.295 0.082,16.559 -2.29,4.751 -6.324,8.239 -11.358,9.822 -5.03,1.582 -10.347,1.019 -14.971,-1.583 -8.133,-4.577 -11.73,-14.929 -8.19,-23.566 2.361,-5.759 7.185,-9.869 13.236,-11.277 2.211,-0.514 4.071,-2.003 5.057,-4.048 l 14.874,-30.858 c 0.336,-0.698 0.563,-1.444 0.67,-2.211 l 2.914,-20.716 c 0.903,-6.417 -1.637,-12.916 -6.627,-16.962 -11.24,-9.115 -20.73,-19.992 -28.208,-32.33 -3.276,-5.405 -9.276,-8.801 -15.66,-8.861 l -20.68,-0.197 c -0.789,-0.01 -1.571,0.109 -2.322,0.345 l -22.642,7.123 c -2.831,0.891 -4.871,3.367 -5.203,6.316 -1.302,11.571 -9.312,21.303 -20.407,24.793 -15.301,4.814 -31.807,-3.672 -36.788,-18.919 -1.98,-6.061 -1.916,-12.493 0.187,-18.601 1.348,-3.917 -0.734,-8.185 -4.651,-9.533 -3.918,-1.35 -8.185,0.735 -9.533,4.651 -3.173,9.22 -3.264,18.951 -0.262,28.141 6.094,18.653 23.605,30.606 42.325,30.605 4.384,0 8.838,-0.656 13.223,-2.036 C 72.88,354.717 84.218,342.253 87.707,327 l 17.146,-5.394 19.492,0.185 c 1.23,0.012 2.37,0.639 2.974,1.637 8.375,13.819 19.003,26.001 31.588,36.207 0.927,0.751 1.395,1.986 1.221,3.222 l -2.751,19.559 -12.923,26.813 c -9.05,3.203 -16.416,10.15 -20.102,19.141 -6.466,15.772 -0.141,33.97 14.713,42.328 8.272,4.656 17.801,5.658 26.825,2.82 8.898,-2.797 16.324,-9.219 20.373,-17.619 3.996,-8.291 4.446,-17.641 1.361,-26.177 l 12.801,-26.558 12.398,-13.083 c 1.667,-1.76 4.126,-2.52 6.581,-2.034 8.86,1.753 17.959,2.643 27.132,2.643 h 0.006 c 2.542,0 4.831,1.239 6.121,3.316 l 9.368,15.068 5.208,20.667 c -8.672,10.584 -11.405,24.777 -7.088,38.032 5.44,16.703 21.397,27.736 38.459,27.735 2.84,0 5.713,-0.306 8.571,-0.942 10.726,-2.389 19.805,-8.848 25.563,-18.189 5.76,-9.344 7.455,-20.351 4.773,-30.992 -3.153,-12.514 -12.16,-22.72 -23.989,-27.511 l -5.159,-20.476 1.226,-19.576 c 0.091,-1.455 0.915,-2.768 2.149,-3.426 11.158,-5.951 21.472,-13.405 30.657,-22.155 0.967,-0.921 2.244,-1.36 3.504,-1.208 l 8.457,1.028 12.192,8.18 c 2.165,8.794 7.73,16.333 15.636,21.025 14.755,8.755 33.738,5.084 44.157,-8.542 5.761,-7.533 8.086,-16.816 6.547,-26.14 -1.517,-9.194 -6.824,-17.444 -14.56,-22.634 -7.999,-5.366 -17.887,-7.033 -27.134,-4.719 l -10.216,-6.854 -4.401,-7.87 c -0.523,-0.936 -0.591,-2.075 -0.187,-3.125 3.782,-9.821 6.439,-20.092 7.897,-30.527 0.178,-1.275 0.935,-2.35 2.023,-2.875 l 13.585,-6.554 13.337,-1.178 c 9.27,15.343 25.811,23.931 43.479,22.158 3.261,-0.327 6.506,-1.017 9.647,-2.05 3.935,-1.295 6.074,-5.534 4.779,-9.469 -1.295,-3.938 -5.535,-6.076 -9.469,-4.782 z"
         inkscape:connector-curvature="0"
         style="fill:#00d455" />
      <path
         id="path819"
         d="m 270.544,149.26 c -7.863,-1.847 -15.97,-2.783 -24.096,-2.783 -57.906,0 -105.017,47.11 -105.017,105.017 0,57.907 47.11,105.017 105.017,105.017 57.907,0 105.017,-47.11 105.017,-105.017 0,-36.206 -18.289,-69.397 -48.922,-88.789 -3.501,-2.216 -8.135,-1.174 -10.349,2.325 -2.216,3.5 -1.174,8.133 2.326,10.349 26.265,16.626 41.945,45.081 41.945,76.115 0,49.635 -40.381,90.017 -90.017,90.017 -49.636,0 -90.017,-40.381 -90.017,-90.017 0,-49.636 40.381,-90.017 90.017,-90.017 6.973,0 13.926,0.803 20.667,2.386 4.033,0.95 8.069,-1.554 9.016,-5.586 0.947,-4.033 -1.555,-8.069 -5.587,-9.017 z"
         inkscape:connector-curvature="0"
         style="fill:#00d455" />
      <path
         id="path821"
         d="m 82.365,81.703 c 19.449,0 35.271,-15.822 35.271,-35.271 0,-19.449 -15.822,-35.271 -35.271,-35.271 -19.449,0 -35.271,15.823 -35.271,35.272 0,19.448 15.822,35.27 35.271,35.27 z m 0,-55.541 c 11.177,0 20.271,9.094 20.271,20.271 0,11.177 -9.094,20.271 -20.271,20.271 -11.177,0 -20.271,-9.094 -20.271,-20.271 0,-11.177 9.094,-20.271 20.271,-20.271 z"
         inkscape:connector-curvature="0"
         style="fill:#00d455" />
      <path
         id="path823"
         d="m 74.774,386.653 c -14.25,0 -25.844,11.593 -25.844,25.843 0,14.25 11.593,25.844 25.844,25.844 14.25,0 25.843,-11.593 25.843,-25.844 0,-14.249 -11.593,-25.843 -25.843,-25.843 z m 0,36.687 c -5.979,0 -10.844,-4.864 -10.844,-10.844 0,-5.979 4.864,-10.843 10.844,-10.843 5.979,0 10.843,4.864 10.843,10.843 0,5.98 -4.864,10.844 -10.843,10.844 z"
         inkscape:connector-curvature="0"
         style="fill:#00d455" />
      <path
         id="path825"
         d="m 411.563,408.111 c -19.033,0 -34.518,15.484 -34.518,34.518 0,19.034 15.484,34.518 34.518,34.518 19.034,0 34.518,-15.484 34.518,-34.518 0,-19.034 -15.485,-34.518 -34.518,-34.518 z m 0,54.035 c -10.762,0 -19.518,-8.755 -19.518,-19.518 0,-10.763 8.755,-19.518 19.518,-19.518 10.763,0 19.518,8.755 19.518,19.518 0,10.763 -8.756,19.518 -19.518,19.518 z"
         inkscape:connector-curvature="0"
         style="fill:#00d455" />
      <path
         id="path827"
         d="m 249.203,224.601 c 0,-18.025 -14.664,-32.689 -32.689,-32.689 -18.025,0 -32.689,14.664 -32.689,32.689 0,18.025 14.664,32.689 32.689,32.689 18.025,0 32.689,-14.665 32.689,-32.689 z m -32.689,17.689 c -9.754,0 -17.689,-7.935 -17.689,-17.689 0,-9.754 7.935,-17.689 17.689,-17.689 9.754,0 17.689,7.935 17.689,17.689 0,9.754 -7.935,17.689 -17.689,17.689 z"
         inkscape:connector-curvature="0"
         style="fill:#00d455" />
      <path
         id="path829"
         d="m 236.735,327.483 c 13.589,0 24.645,-11.056 24.645,-24.645 0,-13.589 -11.056,-24.645 -24.645,-24.645 -13.589,0 -24.645,11.056 -24.645,24.645 0,13.59 11.055,24.645 24.645,24.645 z m 0,-34.289 c 5.318,0 9.645,4.327 9.645,9.645 0,5.318 -4.327,9.645 -9.645,9.645 -5.318,0 -9.645,-4.327 -9.645,-9.645 0,-5.318 4.326,-9.645 9.645,-9.645 z"
         inkscape:connector-curvature="0"
         style="fill:#00d455" />
      <path
         id="path831"
         d="m 268.673,251.494 c 0,12.074 9.823,21.897 21.897,21.897 12.074,0 21.897,-9.823 21.897,-21.897 0,-12.074 -9.823,-21.897 -21.897,-21.897 -12.074,0 -21.897,9.822 -21.897,21.897 z m 21.897,-6.898 c 3.803,0 6.897,3.094 6.897,6.897 0,3.803 -3.094,6.897 -6.897,6.897 -3.803,0 -6.897,-3.094 -6.897,-6.897 0,-3.803 3.093,-6.897 6.897,-6.897 z"
         inkscape:connector-curvature="0"
         style="fill:#00d455" />
    </g>
  </g>
</svg>
